<svg width="73" height="44" viewBox="0 0 73 44" fill="none" xmlns="http://www.w3.org/2000/svg">
<path fill-rule="evenodd" clip-rule="evenodd" d="M34.2672 0.0145987C18.9876 0.532661 5.91495 6.71008 1.50198 15.4975C0.44875 17.5946 0 19.4599 0 21.7401C0 29.0612 5.97271 35.7328 16.2194 39.8576C24.7758 43.3019 35.6308 44.3536 45.7126 42.7148C60.1133 40.3742 70.7002 32.8954 72.258 23.9625C72.4529 22.8447 72.4708 20.9442 72.2974 19.7785L72.1729 18.9409H69.4531C67.0468 18.9409 66.7409 18.9606 66.7991 19.1124C66.9405 19.4807 67.0936 21.7896 67.0299 22.5925C66.6501 27.383 63.9221 31.6728 59.0322 35.1691C54.331 38.5304 47.8996 40.7758 40.8762 41.5078C39.0501 41.6982 33.2348 41.6973 31.5458 41.5065C23.6564 40.6153 17.3225 38.2708 12.3295 34.3935C11.278 33.577 9.48262 31.818 8.88614 31.0199L8.49737 30.4997L6.59985 30.4963C5.55617 30.4944 4.67333 30.4638 4.6379 30.4285C4.60258 30.3931 4.64112 30.1557 4.72365 29.9009C4.80618 29.6461 5.1283 28.6435 5.43932 27.673L6.00492 25.9085L5.78066 25.0072C4.97413 21.7659 5.32235 18.7231 6.84777 15.6842C8.7784 11.8379 12.6435 8.35202 17.7167 5.88179C24.2205 2.7151 30.9996 1.44727 39.4555 1.81615C46.2295 2.11162 50.934 2.8926 55.9271 4.55031C61.782 6.49426 66.3586 9.49745 69.5206 13.4703C69.9704 14.0354 70.3547 14.4978 70.3747 14.4978C70.4408 14.4978 69.4495 13.0619 68.8586 12.3016C67.7463 10.8704 65.7944 9.0728 63.8136 7.65524C58.1769 3.62126 49.6843 0.840122 40.9873 0.180104C39.2846 0.0509214 35.7578 -0.0359412 34.2672 0.0145987ZM15.6546 14.05C14.0631 14.3184 13.3224 14.5462 12.274 15.0896C10.5637 15.9761 9.4032 17.5315 9.0903 19.3565C8.90669 20.4271 9.13862 21.2306 9.82163 21.8899C10.7385 22.775 11.5865 23.0276 15.2175 23.4974C17.761 23.8265 18.4595 23.9635 18.7442 24.1896C18.9617 24.3622 18.9074 24.7671 18.6331 25.0169C18.0389 25.5581 18.1506 25.548 12.3759 25.5826L6.92419 25.6151L6.29205 27.582C5.94438 28.6636 5.66114 29.5861 5.66247 29.632C5.66702 29.7868 15.596 29.7207 17.2724 29.5547C22.7034 29.0171 25.3926 27.3105 26.2762 23.8408C26.6728 22.284 26.0374 21.0016 24.548 20.3522C23.6889 19.9776 23.3268 19.9033 19.8361 19.3841C18.1303 19.1304 16.5564 18.8643 16.3386 18.7929C15.6556 18.5692 15.8048 18.0278 16.6593 17.6295C17.0005 17.4703 17.7181 17.4424 22.2987 17.4096C25.1853 17.3889 27.5475 17.3626 27.5481 17.3511C27.5487 17.3397 27.7986 16.5824 28.1035 15.6682C28.4083 14.7542 28.6578 13.9668 28.6578 13.9187C28.6578 13.8706 25.9962 13.836 22.743 13.8417C17.6153 13.8507 16.672 13.8784 15.6546 14.05ZM36.7109 14.05C35.2438 14.3083 34.2434 14.6175 33.1279 15.1574C30.1242 16.6112 28.3723 18.7737 27.3714 22.2632C27.1129 23.1641 27.0846 23.4294 27.1235 24.5818C27.1617 25.712 27.2065 25.9635 27.4638 26.4941C28.0898 27.7842 29.4111 28.7048 31.4082 29.2423L32.49 29.5334L38.4923 29.5778L44.4947 29.6222L45.1292 27.689C45.4782 26.6258 45.7636 25.7221 45.7636 25.6807C45.7636 25.6393 43.5162 25.6055 40.7694 25.6055C36.0446 25.6055 35.7429 25.5935 35.1805 25.383C34.1708 25.0052 33.7667 24.427 33.7687 23.3635C33.7714 21.8966 34.4727 20.2634 35.6235 19.0434C36.4741 18.1419 37.3718 17.6479 38.4409 17.4934C38.8334 17.4367 41.1822 17.3892 43.6604 17.388L48.1661 17.3858L48.7287 15.6086L49.2912 13.8313L43.5564 13.8429C38.6115 13.8529 37.6687 13.8813 36.7109 14.05ZM50.0402 13.9702C49.9036 14.3612 48.9849 17.2866 48.9849 17.3306C48.9849 17.3587 50.1469 17.3951 51.5674 17.4116L54.1499 17.4413L54.1108 17.719C54.0894 17.8717 53.5571 19.5962 52.928 21.5512C52.2988 23.5061 51.4731 26.0803 51.0931 27.2716C50.713 28.4629 50.3796 29.4759 50.3522 29.5227C50.3249 29.5695 51.6871 29.5945 53.3795 29.5782L56.4565 29.5487L56.7036 28.7712C57.1976 27.216 60.2242 17.6597 60.2654 17.5246C60.2977 17.4186 60.9358 17.3858 62.9652 17.3858C65.3606 17.3858 65.6297 17.3672 65.6948 17.1975C65.8407 16.8172 66.7571 13.9776 66.7571 13.9056C66.7571 13.8648 63.0067 13.8313 58.4229 13.8313C51.8554 13.8313 50.0784 13.8608 50.0402 13.9702ZM22.2147 32.0406C21.6369 32.2163 21.2008 32.5147 20.8857 32.9496C20.5444 33.4207 20.3621 34.1885 20.4934 34.6019C20.6743 35.1718 22.3555 35.4776 23.251 35.1035C23.5016 34.9989 23.6725 34.9785 23.7156 35.048C23.7529 35.1085 23.8983 35.1581 24.0385 35.1581C24.2589 35.1581 24.3257 35.0492 24.5321 34.3528C24.6634 33.9098 24.7707 33.51 24.7705 33.4641C24.7702 33.4183 24.4001 33.3808 23.9479 33.3808C23.1342 33.3808 23.1245 33.3843 23.0096 33.7141C22.9064 34.0101 22.9176 34.0473 23.1097 34.0473C23.3874 34.0473 23.3883 34.2284 23.1113 34.3766C22.8186 34.5333 22.068 34.5219 21.9043 34.3583C21.61 34.064 21.8633 33.2289 22.3505 32.8878C22.6731 32.6618 23.4223 32.6575 23.5081 32.881C23.5548 33.0027 23.7465 33.0476 24.2201 33.0476C24.5765 33.0476 24.893 33.0073 24.9234 32.9581C25.0341 32.779 24.7021 32.3209 24.3243 32.1314C23.9184 31.9278 22.7506 31.8776 22.2147 32.0406ZM26.0121 33.5197C25.7536 34.3292 25.5434 35.0289 25.545 35.0748C25.5464 35.1206 26.3166 35.1581 27.2563 35.1581C28.9345 35.1581 28.9664 35.1536 29.0321 34.9081C29.1712 34.389 29.1554 34.3805 28.0469 34.3805C27.0657 34.3805 26.9917 34.365 26.9917 34.1584C26.9917 33.9539 27.0657 33.9362 27.9228 33.9362C28.7946 33.9362 28.8583 33.9202 28.9211 33.6863C29.0576 33.1768 29.031 33.1587 28.1461 33.1587C27.4212 33.1587 27.3107 33.1337 27.3685 32.983C27.4056 32.8863 27.436 32.7864 27.436 32.7608C27.436 32.7353 27.9305 32.7144 28.5348 32.7144C29.4345 32.7144 29.6459 32.6825 29.7011 32.5387C29.8849 32.0598 29.8467 32.0479 28.1252 32.0479H26.4818L26.0121 33.5197ZM30.5065 33.4086C30.2724 34.157 30.0548 34.8568 30.0228 34.9637C29.9725 35.1322 30.0456 35.1581 30.5711 35.1581H31.1774L31.3122 34.7082L31.4469 34.2582L32.024 34.2917L32.601 34.325L32.5646 34.7415L32.5282 35.1581H33.1366H33.7452L33.8769 34.6091C33.9493 34.3072 33.9789 33.967 33.9428 33.853C33.8981 33.7121 33.9837 33.5437 34.211 33.326C34.6141 32.9398 34.6747 32.3474 34.3301 32.1629C34.2106 32.099 33.4083 32.0479 32.5236 32.0479H30.932L30.5065 33.4086ZM35.4952 33.4086C35.2622 34.157 35.0472 34.8568 35.0174 34.9637C34.9711 35.1299 35.0428 35.1581 35.5128 35.1581H36.0623L36.4421 33.964L36.8219 32.7699L36.8535 33.964L36.885 35.1581H37.3278C37.7684 35.1581 37.7745 35.1522 38.5491 33.964C39.3583 32.7228 39.4057 32.7541 38.9149 34.2056C38.7718 34.6287 38.6547 35.016 38.6547 35.0664C38.6547 35.1169 38.8953 35.1581 39.1894 35.1581H39.7243L40.148 33.7974C40.3811 33.0489 40.5961 32.3492 40.6259 32.2423C40.6742 32.0689 40.5843 32.0479 39.7922 32.0479H38.9044L38.3632 32.9365C38.0657 33.4253 37.7811 33.8251 37.731 33.8251C37.6808 33.8251 37.6747 33.4253 37.7172 32.9365L37.7948 32.0479H36.8569H35.919L35.4952 33.4086ZM41.7785 33.5455C41.16 34.3692 40.6541 35.069 40.6541 35.1005C40.6541 35.1322 40.9229 35.1581 41.2515 35.1581C41.6469 35.1581 41.8955 35.1017 41.987 34.9915C42.0812 34.8779 42.3334 34.8248 42.7781 34.8248C43.2844 34.8248 43.431 34.8623 43.431 34.9915C43.431 35.1214 43.5806 35.1581 44.1114 35.1581H44.7917L44.7297 34.8482C44.6956 34.6778 44.6323 33.978 44.589 33.2931L44.5101 32.0479H43.7065H42.9028L41.7785 33.5455ZM46.1167 33.5228C45.8615 34.334 45.6525 35.0338 45.6525 35.0779C45.6525 35.122 45.8951 35.1581 46.1917 35.1581H46.731L46.997 34.27C47.1434 33.7816 47.2929 33.3817 47.3294 33.3814C47.3658 33.3811 47.5466 33.7683 47.7313 34.2417L48.067 35.1025L48.7825 35.1348L49.4978 35.1673L49.9633 33.6746C50.2194 32.8538 50.4288 32.1519 50.4288 32.115C50.4288 32.0781 50.183 32.0479 49.8826 32.0479H49.3362L49.0963 32.7977C48.9643 33.21 48.8319 33.6224 48.802 33.7141C48.7292 33.9377 48.6437 33.7788 48.3095 32.7977L48.054 32.0479H47.3175H46.581L46.1167 33.5228ZM51.3175 32.1396C51.3175 32.1958 51.4583 32.7154 51.6304 33.2942C51.9101 34.2349 51.9284 34.3896 51.8028 34.7523L51.6624 35.1581H52.2588C52.8498 35.1581 52.8565 35.1542 52.9916 34.7415C53.0755 34.4851 53.5322 33.8876 54.1802 33.1865L55.2326 32.0479H54.5589H53.8852L53.4081 32.6588C53.1457 32.9948 52.8954 33.2698 52.852 33.2698C52.8086 33.2698 52.758 33.0073 52.7395 32.6866L52.7059 32.1035L52.0117 32.0704C51.6299 32.0522 51.3175 32.0834 51.3175 32.1396ZM33.0809 33.0754C33.0492 33.2975 32.9728 33.3291 32.3924 33.3591C31.826 33.3883 31.7488 33.3687 31.8093 33.2111C31.8477 33.1111 31.879 32.9835 31.879 32.9274C31.879 32.8713 32.1574 32.8255 32.4977 32.8255C33.0757 32.8255 33.114 32.8419 33.0809 33.0754ZM43.4094 33.5752C43.3769 34.0812 43.3606 34.1043 43.0145 34.1376C42.8159 34.1568 42.6535 34.137 42.6535 34.0937C42.6535 33.9553 43.261 33.0481 43.3538 33.0478C43.4029 33.0477 43.4279 33.285 43.4094 33.5752Z" fill="white"/>
</svg>
