<?xml version="1.0" encoding="UTF-8"?> <svg xmlns="http://www.w3.org/2000/svg" width="76" height="43" viewBox="0 0 76 43" fill="none"><g clip-path="url(#clip0_86_617)"><path d="M38 0.314453C55.3333 0.314453 69.9259 6.7589 74.5185 15.5737C68.3704 6.31445 55.2593 2.09223 38 2.09223C20.7407 2.09223 5.7037 10.7589 5.7037 21.4996C5.7037 22.907 5.92593 24.2404 6.37037 25.4996L4.81482 29.9441H8.88889C14.1481 36.4626 25.1852 40.907 38 40.907C55.8519 40.907 70.2963 32.2404 70.2963 21.4996C70.2963 20.5367 70.1482 19.6478 70 18.7589H75.7037C75.9259 19.6478 76 20.6107 76 21.4996C76 33.2033 58.963 42.6848 38 42.6848C17.037 42.6848 0 33.2033 0 21.4996C0 9.79593 17.037 0.314453 38 0.314453ZM51.3333 17.3515H56.8148L56.4444 18.6107L52.8148 29.2033H59.2593L62.8889 18.6107L63.2593 17.3515H68.8889L70.1481 13.7959H52.5185L51.3333 17.3515ZM46.7407 29.2033L48.1482 25.2774H38.0741C37.1852 25.2774 36.2222 24.9811 35.7037 24.2404C35.1852 23.4996 35.4074 22.3885 35.7037 21.5737C36.4444 19.4256 38.2963 17.3515 40.963 17.3515H50.5185L51.7778 13.7959H42C39.037 13.7959 36 14.2404 33.4815 15.7219C31.1852 17.0552 29.7037 19.0552 28.8148 21.4256C28.1482 23.3515 27.9259 25.6478 29.5556 27.2774C31.2593 28.9811 34.4444 29.2033 36.8148 29.2033H46.7407ZM28.963 17.3515L30.2222 13.7959H27.1111H20.3704C18.0741 13.7959 15.2593 14.0182 13.1852 14.907C11.4815 15.6478 10.2963 16.833 9.77778 18.5367C9.40741 19.5737 9.40741 20.7589 10.2222 21.5737C11.1111 22.5367 12.7407 22.833 14.0741 23.0552L18.3704 23.5737C18.8148 23.6478 19.4074 23.7219 19.7037 23.9441C19.7778 24.0182 19.8519 24.0182 19.8519 24.1663C19.8519 24.2404 19.8519 24.3145 19.8519 24.3885C19.7037 24.6848 19.4815 24.907 19.1111 25.0552C18.5926 25.2774 17.8519 25.2774 17.3333 25.2774H7.33333L5.92593 29.2033H15.1111C17.8519 29.2033 21.037 28.9811 23.5556 27.9441C25.4815 27.1293 26.8889 25.87 27.5556 23.9441C27.9259 22.907 28 21.7959 27.1852 20.9811C26.3704 20.0922 24.8889 19.7219 23.7037 19.4996L18.5185 18.7589C18.0741 18.6848 17.2593 18.6107 16.8889 18.3885L16.6667 18.2404L16.7407 18.0182C16.8148 17.7219 17.1111 17.5737 17.4074 17.4996C17.9259 17.3515 18.5185 17.3515 19.037 17.3515H28.963Z" fill="white"></path><path d="M49.7041 32.9074C49.8522 32.537 49.7782 32.0926 49.4819 31.8704C49.0374 31.5741 48.5189 31.5 48.0004 31.5C47.3337 31.5 46.6671 31.6481 46.1485 31.9444C45.7041 32.2407 45.3337 32.6111 45.1115 33.1296C44.8893 33.5 44.9634 34.0185 45.2597 34.3148C45.7041 34.6111 46.2967 34.7593 46.8152 34.7593C47.4078 34.7593 48.0004 34.6852 48.5189 34.463C48.9634 34.2407 49.3337 33.9444 49.556 33.5H48.0004C47.9263 33.6481 47.7782 33.7963 47.63 33.8704C47.4819 33.9444 47.2597 34.0185 47.1115 34.0185C46.8893 34.0185 46.6671 33.9444 46.5189 33.7963C46.4448 33.5741 46.4448 33.3519 46.5189 33.2037C46.593 32.9815 46.7411 32.7593 46.9634 32.6111C47.1856 32.463 47.4078 32.3889 47.7041 32.3889C47.8523 32.3889 48.0745 32.3889 48.1485 32.537C48.2226 32.6852 48.2967 32.8333 48.2226 32.9815L49.7041 32.9074Z" fill="white"></path><path d="M54.8151 32.315L55.0373 31.5742H51.4077L50.2225 34.6853H54.0003L54.2966 33.8705H51.8522L52.0744 33.5001H53.9262L54.2225 32.6853H52.2966L52.4448 32.315H54.8151Z" fill="white"></path><path d="M37.6296 31.5742L38 34.6853H39.4074L42.1482 31.5742H40.6667L39.1111 33.6483L39.1852 31.5742H37.6296Z" fill="white"></path><path d="M23.7038 32.3144C23.8519 32.2403 23.926 32.2403 24.0741 32.2403C24.2223 32.2403 24.3704 32.2403 24.5186 32.3144C24.5926 32.3144 24.6667 32.4626 24.5926 32.5366H26.1482C26.2963 32.2403 26.1482 31.944 25.8519 31.7959C25.4075 31.5737 24.8889 31.4996 24.3704 31.5737C23.8519 31.5737 23.2593 31.6477 22.8149 31.7959C22.4445 31.944 22.2223 32.1663 22.0741 32.5366C22 32.7589 22 32.9811 22.1482 33.1292C22.3704 33.2774 22.6667 33.4255 22.963 33.4255L23.926 33.4996C24.0741 33.4996 24.1482 33.5737 24.2223 33.5737C24.2963 33.5737 24.2963 33.6477 24.2963 33.7218C24.2223 33.7959 24.2223 33.87 24.0741 33.87C23.926 33.944 23.7778 33.944 23.6297 33.944C23.4815 33.944 23.3334 33.944 23.2593 33.87C23.1852 33.87 23.1112 33.7218 23.1852 33.6477H21.5556C21.4075 33.944 21.5556 34.2403 21.7778 34.3885C22.2223 34.6107 22.6667 34.6848 23.1112 34.6848C23.7778 34.6848 24.3704 34.6107 24.963 34.3885C25.3334 34.2403 25.7038 33.944 25.8519 33.5737C25.926 33.3515 25.926 33.2033 25.7778 32.9811C25.5556 32.8329 25.3334 32.6848 25.0371 32.6848L23.926 32.5366C23.7778 32.5366 23.7038 32.4626 23.5556 32.4626C23.4815 32.4626 23.4815 32.3885 23.4815 32.3144C23.5556 32.3885 23.6297 32.3144 23.7038 32.3144Z" fill="white"></path><path d="M44.37 31.5742H43.0366L41.8514 34.6853H43.1848L44.37 31.5742Z" fill="white"></path><path d="M31.2596 32.315L31.5559 31.5742H27.9263L26.7411 34.6853H30.5189L30.8152 33.8705H28.3707L28.5189 33.5001H30.4448L30.667 32.6853H28.8152L28.9633 32.315H31.2596Z" fill="white"></path><path d="M36.6667 32.3888C36.7408 32.2406 36.7408 32.0925 36.7408 32.0184C36.7408 31.8702 36.6667 31.7962 36.5186 31.7221C36.3704 31.648 36.2963 31.648 36.1482 31.5739C35.926 31.5739 35.7037 31.4999 35.4815 31.5739H32.8889L31.7037 34.685H33.0371L33.4074 33.7221H34.2223C34.3704 33.7221 34.4445 33.7221 34.5185 33.7962C34.5185 33.8702 34.5926 33.9443 34.5185 34.0184C34.5185 34.0925 34.4445 34.1665 34.4445 34.2406C34.3704 34.3888 34.3704 34.4628 34.3704 34.611H35.8519V34.5369C35.7778 34.4628 35.7778 34.2406 35.926 33.8702V33.7962C36 33.648 36 33.4999 36 33.3517C35.926 33.2776 35.8519 33.2036 35.7778 33.1295C36 33.0554 36.1482 32.9813 36.2963 32.8332C36.4445 32.7591 36.5926 32.611 36.6667 32.3888ZM35.1111 32.611C35.1111 32.685 35.0371 32.7591 34.8889 32.8332C34.7408 32.9073 34.5926 32.9073 34.4445 32.9073H33.6297L33.8519 32.3888H34.5926C34.7408 32.3888 34.8889 32.3888 35.0371 32.4628C35.1111 32.4628 35.1111 32.5369 35.1111 32.611Z" fill="white"></path></g><defs><clipPath id="clip0_86_617"><rect width="76" height="43" fill="white"></rect></clipPath></defs></svg> 